<svg width="111" height="18" viewBox="0 0 111 18" fill="none" xmlns="http://www.w3.org/2000/svg">
<path fill-rule="evenodd" clip-rule="evenodd" d="M37.52 8.52C37.52 3.888 33.512 0 28.76 0C24.008 0 20 3.888 20 8.52C20 13.152 24.008 17.064 28.76 17.064C30.68 17.064 32.48 16.416 33.944 15.36L35.576 16.776L37.376 14.688L35.888 13.392C36.92 12 37.52 10.32 37.52 8.52ZM28.76 13.848C26 13.848 23.648 11.4 23.648 8.52C23.648 5.664 26 3.216 28.76 3.216C31.544 3.216 33.872 5.664 33.872 8.52C33.872 9.432 33.632 10.32 33.224 11.088L31.16 9.288L29.36 11.376L31.328 13.104C30.584 13.56 29.696 13.848 28.76 13.848ZM46.4638 17.064C50.8318 17.064 53.9278 13.992 53.9278 9.64799V0.287994H50.3758V9.504C50.3758 12.048 48.7678 13.848 46.4638 13.848C44.1598 13.848 42.5518 12.048 42.5518 9.504V0.287994H38.9998V9.64799C38.9998 13.992 42.0958 17.064 46.4638 17.064ZM110.711 16.776H106.751L105.599 13.944H98.4471L97.2951 16.776H93.3351L100.031 0.287994H104.015L110.711 16.776ZM102.023 5.18399L99.5751 11.184H104.471L102.023 5.18399ZM66.49 16.776H70.45L63.754 0.287994H59.77L53.074 16.776H57.034L58.186 13.944H65.338L66.49 16.776ZM59.314 11.184L61.762 5.18399L64.21 11.184H59.314ZM91.975 16.776H88.447L88.447 3.47999V0.287994H95.5056V3.47999H91.975V16.776ZM82.9251 16.776H82.943H86.4531H86.471V0.287994H86.4531H82.943H79.3885V3.47999H82.9251V10.9201L74.975 0.287994H71.447V16.776H74.975V6.11999L82.9251 16.7521V16.776Z" fill="#021322"/>
<path fill-rule="evenodd" clip-rule="evenodd" d="M17 0H0V17H17V0ZM14.5 8.49999L10 11.0981L10 5.90192L14.5 8.49999ZM5.5 6C6.88071 6 8 7.11929 8 8.5C8 9.88071 6.88071 11 5.5 11C4.11929 11 3 9.88071 3 8.5C3 7.11929 4.11929 6 5.5 6Z" fill="#F54E38"/>
</svg>
